<?xml version="1.0" encoding="utf-8"?>
<!-- Generator: Adobe Illustrator 22.1.0, SVG Export Plug-In . SVG Version: 6.00 Build 0)  -->
<svg version="1.1" id="Слой_1" xmlns="http://www.w3.org/2000/svg" xmlns:xlink="http://www.w3.org/1999/xlink" x="0px" y="0px"
	 viewBox="0 0 1167.6 271.4" style="enable-background:new 0 0 1167.6 271.4;" xml:space="preserve">
<style type="text/css">
	.st0{fill:none;stroke:#4285F4;stroke-miterlimit:10;}
	.st1{fill:#4285F4;}
	.st2{font-family:'MyriadPro-Regular';}
	.st3{font-size:80px;}
	.st4{fill:#808080;}
</style>
<line class="st0" x1="75.3" y1="70.9" x2="75.4" y2="201.3"/>
<line class="st0" x1="160.4" y1="70.9" x2="160.5" y2="201.3"/>
<line class="st0" x1="245.4" y1="70.7" x2="245.5" y2="201.1"/>
<line class="st0" x1="330.4" y1="70.9" x2="330.5" y2="201.3"/>
<line class="st0" x1="415.5" y1="71.2" x2="415.6" y2="201.5"/>
<line class="st0" x1="500.5" y1="71.2" x2="500.6" y2="201.5"/>
<line class="st0" x1="585.6" y1="71" x2="585.7" y2="201.4"/>
<line class="st0" x1="670.6" y1="71.2" x2="670.7" y2="201.5"/>
<line class="st0" x1="755.6" y1="70.8" x2="755.7" y2="201.2"/>
<line class="st0" x1="840.7" y1="69.8" x2="840.8" y2="200.2"/>
<line class="st0" x1="925.8" y1="70" x2="925.9" y2="200.4"/>
<line class="st0" x1="158.7" y1="0.6" x2="75.2" y2="71.2"/>
<line class="st0" x1="243.8" y1="0.6" x2="160.2" y2="71.2"/>
<line class="st0" x1="328.8" y1="0.4" x2="245.3" y2="71.1"/>
<line class="st0" x1="413.8" y1="0.6" x2="330.3" y2="71.2"/>
<line class="st0" x1="498.9" y1="0.7" x2="415.4" y2="71.4"/>
<line class="st0" x1="583.9" y1="0.7" x2="500.4" y2="71.4"/>
<line class="st0" x1="669" y1="0.6" x2="585.4" y2="71.3"/>
<line class="st0" x1="754" y1="0.7" x2="670.5" y2="71.4"/>
<line class="st0" x1="839" y1="0.5" x2="755.5" y2="71.1"/>
<line class="st0" x1="924.2" y1="-0.4" x2="840.6" y2="70.2"/>
<line class="st0" x1="1009.2" y1="-0.3" x2="925.7" y2="70.3"/>
<line class="st0" x1="75.3" y1="201.1" x2="158.8" y2="271.8"/>
<line class="st0" x1="160.3" y1="201.1" x2="243.9" y2="271.8"/>
<line class="st0" x1="245.4" y1="201" x2="328.9" y2="271.7"/>
<line class="st0" x1="330.4" y1="201.1" x2="413.9" y2="271.8"/>
<line class="st0" x1="415.5" y1="201.3" x2="499" y2="272"/>
<line class="st0" x1="500.5" y1="201.3" x2="584" y2="271.9"/>
<line class="st0" x1="585.5" y1="201.2" x2="669.1" y2="271.8"/>
<line class="st0" x1="670.6" y1="201.3" x2="754.1" y2="271.9"/>
<line class="st0" x1="755.6" y1="201.1" x2="839.1" y2="271.7"/>
<line class="st0" x1="840.7" y1="200.2" x2="924.3" y2="270.8"/>
<line class="st0" x1="925.8" y1="200.3" x2="1009.3" y2="270.9"/>
<line class="st0" x1="1008.8" y1="-0.4" x2="1092.3" y2="70.2"/>
<path class="st0" d="M1092.1,177.2c0,7.9,0.1,15.8,0.1,23.6"/>
<path class="st0" d="M1092.2,69.9c-0.1,10.5-0.1,19.5,0,29.3"/>
<line class="st0" x1="1092.5" y1="200.4" x2="1009" y2="271"/>
<path class="st0" d="M989,99.3c-28.1,7.9-24.8,66,0,78"/>
<g>
	<path class="st0" d="M1051.8,99.7c28.3,0,55.3,0,83.3,0"/>
	<path class="st0" d="M1055.8,177.7c26.3,0,53.3,0,79.3,0"/>
	<path class="st0" d="M1133.8,99.9c-28.3,4.5-27.7,66.8,0,78"/>
	<path class="st0" d="M1135.1,99.5c41.7,0.3,45,74.5,0,78"/>
</g>
<path class="st0" d="M75.8,96.8c-17.3,0-34.7,0-52,0"/>
<path class="st0" d="M75.4,174.4c-17.1,0.4-34.1,0.4-51.1,0"/>
<path class="st0" d="M24.3,96.6c-28.1,7.9-24.8,66,0,78"/>
<text transform="matrix(1 0 0 1 101 158.334)" class="st1 st2 st3">E</text>
<text transform="matrix(1 0 0 1 179 158.3337)" class="st1 st2 st3">N</text>
<text transform="matrix(1 0 0 1 264 158.3342)" class="st1 st2 st3">D</text>
<text transform="matrix(1 0 0 1 353 157.5399)" class="st1 st2 st3">C</text>
<text transform="matrix(1 0 0 1 438 158.3338)" class="st1 st2 st3">R</text>
<text transform="matrix(1 0 0 1 525 158.3343)" class="st1 st2 st3">Y</text>
<text transform="matrix(1 0 0 1 604 157.5399)" class="st1 st2 st3">P</text>
<text transform="matrix(1 0 0 1 691 158.3338)" class="st1 st2 st3">T</text>
<text transform="matrix(1 0 0 1 778 158.3343)" class="st1 st2 st3">E</text>
<text transform="matrix(1 0 0 1 856.0342 157.5401)" class="st1 st2 st3">D</text>
<line class="st0" x1="158.7" y1="0.6" x2="1008.8" y2="-0.4"/>
<line class="st0" x1="158.8" y1="271.8" x2="1009" y2="271"/>
<line class="st0" x1="75.3" y1="70.9" x2="160.2" y2="71.2"/>
<line class="st0" x1="75.3" y1="201.1" x2="160.3" y2="201.1"/>
<line class="st0" x1="160.4" y1="70.9" x2="245.3" y2="71.1"/>
<line class="st0" x1="160.3" y1="201.1" x2="245.4" y2="201"/>
<line class="st0" x1="245.3" y1="71.1" x2="330.3" y2="71.2"/>
<line class="st0" x1="245.4" y1="201" x2="330.4" y2="201.1"/>
<line class="st0" x1="330.3" y1="71.2" x2="415.4" y2="71.4"/>
<line class="st0" x1="330.4" y1="201.1" x2="415.5" y2="201.3"/>
<line class="st0" x1="415.4" y1="71.4" x2="500.4" y2="71.4"/>
<line class="st0" x1="415.5" y1="201.3" x2="500.6" y2="201.5"/>
<line class="st0" x1="500.4" y1="71.4" x2="585.4" y2="71.3"/>
<line class="st0" x1="500.6" y1="201.5" x2="585.7" y2="201.4"/>
<line class="st0" x1="585.4" y1="71.3" x2="670.5" y2="71.4"/>
<line class="st0" x1="585.7" y1="201.4" x2="670.7" y2="201.5"/>
<line class="st0" x1="670.5" y1="71.4" x2="755.5" y2="71.1"/>
<line class="st0" x1="670.7" y1="201.5" x2="755.7" y2="201.2"/>
<line class="st0" x1="755.5" y1="71.1" x2="840.6" y2="70.2"/>
<line class="st0" x1="755.7" y1="201.2" x2="840.8" y2="200.2"/>
<line class="st0" x1="840.6" y1="70.2" x2="925.7" y2="70.3"/>
<line class="st0" x1="840.8" y1="200.2" x2="925.9" y2="200.4"/>
<text transform="matrix(0.835 0 -0.8169 0.5767 117.8246 51.3344)" class="st4 st2 st3">S</text>
<text transform="matrix(0.835 0 -0.8169 0.5767 202.0038 51.3349)" class="st4 st2 st3">A</text>
<text transform="matrix(0.835 0 -0.8169 0.5767 293.0431 51.3348)" class="st4 st2 st3">F</text>
<text transform="matrix(0.835 0 -0.8169 0.5767 372.9429 51.335)" class="st4 st2 st3">E</text>
<text transform="matrix(0.835 0 -0.8169 0.5767 457.1219 51.3352)" class="st4 st2 st3">S</text>
<text transform="matrix(0.835 0 -0.8169 0.5767 550.1619 51.3348)" class="st4 st2 st3">I</text>
<text transform="matrix(0.835 0 -0.8169 0.5767 622.2007 51.3353)" class="st4 st2 st3">M</text>
<text transform="matrix(0.835 0 -0.8169 0.5767 712.2404 51.3361)" class="st4 st2 st3">P</text>
<text transform="matrix(0.835 0 -0.8169 0.5767 802.2795 51.3364)" class="st4 st2 st3">L</text>
<text transform="matrix(0.835 0 -0.8169 0.5767 882.3929 51.3357)" class="st4 st2 st3">E</text>
<text transform="matrix(0.5448 0 0.8386 0.5448 171.4063 251.7623)" class="st4 st2 st3">C</text>
<text transform="matrix(0.5448 0 0.8386 0.5448 251.9985 251.764)" class="st4 st2 st3">O</text>
<text transform="matrix(0.5448 0 0.8386 0.5448 335.9988 251.7641)" class="st4 st2 st3">M</text>
<text transform="matrix(0.5448 0 0.8386 0.5448 427.9371 251.7635)" class="st4 st2 st3">P</text>
<text transform="matrix(0.5448 0 0.8386 0.5448 511.9371 251.7637)" class="st4 st2 st3">L</text>
<text transform="matrix(0.5448 0 0.8386 0.5448 599.9371 251.7631)" class="st4 st2 st3">I</text>
<text transform="matrix(0.5448 0 0.8386 0.5448 682.937 251.7637)" class="st4 st2 st3">A</text>
<text transform="matrix(0.5448 0 0.8386 0.5448 760.937 251.7636)" class="st4 st2 st3">N</text>
<text transform="matrix(0.5448 0 0.8386 0.5448 850.937 251.7637)" class="st4 st2 st3">C</text>
<text transform="matrix(0.5448 0 0.8386 0.5448 936.937 251.7628)" class="st4 st2 st3">E</text>
<line class="st0" x1="989" y1="99.3" x2="1051.8" y2="99.7"/>
<line class="st0" x1="989" y1="177.3" x2="1055.8" y2="177.7"/>
</svg>
