<?xml version="1.0" encoding="utf-8"?>
<!-- Generator: Adobe Illustrator 22.1.0, SVG Export Plug-In . SVG Version: 6.00 Build 0)  -->
<svg version="1.1" id="Слой_1" xmlns="http://www.w3.org/2000/svg" xmlns:xlink="http://www.w3.org/1999/xlink" x="0px" y="0px"
	 viewBox="0 0 1325.4 271.4" style="enable-background:new 0 0 1325.4 271.4;" xml:space="preserve">
<style type="text/css">
	.st0{fill:none;stroke:#4285F4;stroke-miterlimit:10;}
	.st1{fill:#4285F4;}
	.st2{font-family:'MyriadPro-Regular';}
	.st3{font-size:80px;}
	.st4{fill:#808080;}
</style>
<line class="st0" x1="141.1" y1="70.9" x2="141.3" y2="201.3"/>
<line class="st0" x1="226.2" y1="70.9" x2="226.3" y2="201.3"/>
<line class="st0" x1="311.2" y1="70.7" x2="311.3" y2="201.1"/>
<line class="st0" x1="396.3" y1="70.9" x2="396.4" y2="201.3"/>
<line class="st0" x1="481.3" y1="71.2" x2="481.4" y2="201.5"/>
<line class="st0" x1="566.3" y1="71.2" x2="566.4" y2="201.5"/>
<line class="st0" x1="651.4" y1="71" x2="651.5" y2="201.4"/>
<line class="st0" x1="736.4" y1="71.2" x2="736.5" y2="201.5"/>
<line class="st0" x1="821.5" y1="70.8" x2="821.6" y2="201.2"/>
<line class="st0" x1="906.6" y1="69.8" x2="906.7" y2="200.2"/>
<line class="st0" x1="991.6" y1="70" x2="991.7" y2="200.4"/>
<line class="st0" x1="224.6" y1="0.6" x2="141" y2="71.2"/>
<line class="st0" x1="309.6" y1="0.6" x2="226.1" y2="71.2"/>
<line class="st0" x1="394.6" y1="0.4" x2="311.1" y2="71.1"/>
<line class="st0" x1="479.7" y1="0.6" x2="396.2" y2="71.2"/>
<line class="st0" x1="564.7" y1="0.7" x2="481.2" y2="71.4"/>
<line class="st0" x1="649.8" y1="0.7" x2="566.2" y2="71.4"/>
<line class="st0" x1="734.8" y1="0.6" x2="651.3" y2="71.3"/>
<line class="st0" x1="819.8" y1="0.7" x2="736.3" y2="71.4"/>
<line class="st0" x1="904.9" y1="0.5" x2="821.3" y2="71.1"/>
<line class="st0" x1="990" y1="-0.4" x2="906.5" y2="70.2"/>
<line class="st0" x1="1075" y1="-0.3" x2="991.5" y2="70.3"/>
<line class="st0" x1="141.1" y1="201.1" x2="224.7" y2="271.8"/>
<line class="st0" x1="226.2" y1="201.1" x2="309.7" y2="271.8"/>
<line class="st0" x1="311.2" y1="201" x2="394.7" y2="271.7"/>
<line class="st0" x1="396.3" y1="201.1" x2="479.8" y2="271.8"/>
<line class="st0" x1="481.3" y1="201.3" x2="564.8" y2="272"/>
<line class="st0" x1="566.3" y1="201.3" x2="649.9" y2="271.9"/>
<line class="st0" x1="651.4" y1="201.2" x2="734.9" y2="271.8"/>
<line class="st0" x1="736.4" y1="201.3" x2="819.9" y2="271.9"/>
<line class="st0" x1="821.5" y1="201.1" x2="905" y2="271.7"/>
<line class="st0" x1="906.6" y1="200.2" x2="990.1" y2="270.8"/>
<line class="st0" x1="991.6" y1="200.3" x2="1075.1" y2="270.9"/>
<line class="st0" x1="1074.7" y1="-0.4" x2="1158.2" y2="70.2"/>
<path class="st0" d="M1158,177.2c0,7.9,0.1,15.8,0.1,23.6"/>
<path class="st0" d="M1158,69.9c-0.1,10.5-0.1,19.5,0,29.3"/>
<line class="st0" x1="1158.3" y1="200.4" x2="1074.8" y2="271"/>
<line class="st0" x1="1054.9" y1="99.3" x2="1292.9" y2="99.3"/>
<line class="st0" x1="1054.9" y1="177.3" x2="1292.9" y2="177.3"/>
<path class="st0" d="M1054.9,99.3c-28.1,7.9-24.8,66,0,78"/>
<path class="st0" d="M1291.5,99.5c-28.3,4.5-27.7,66.8,0,78"/>
<path class="st0" d="M1292.9,99.1c41.7,0.3,45,74.5,0,78"/>
<line class="st0" x1="141.2" y1="100.3" x2="19.8" y2="100.3"/>
<line class="st0" x1="141.2" y1="177.9" x2="19.8" y2="177.9"/>
<path class="st0" d="M19.9,100.1c-28.1,7.9-24.8,66,0,78"/>
<text transform="matrix(1 0 0 1 166.8314 158.334)" class="st1 st2 st3">E</text>
<text transform="matrix(1 0 0 1 244.8314 158.3337)" class="st1 st2 st3">N</text>
<text transform="matrix(1 0 0 1 329.8314 158.3342)" class="st1 st2 st3">D</text>
<text transform="matrix(1 0 0 1 418.8314 157.5399)" class="st1 st2 st3">C</text>
<text transform="matrix(1 0 0 1 503.8314 158.3338)" class="st1 st2 st3">R</text>
<text transform="matrix(1 0 0 1 590.8314 158.3343)" class="st1 st2 st3">Y</text>
<text transform="matrix(1 0 0 1 669.8314 157.5399)" class="st1 st2 st3">P</text>
<text transform="matrix(1 0 0 1 756.8314 158.3338)" class="st1 st2 st3">T</text>
<text transform="matrix(1 0 0 1 843.8314 158.3343)" class="st1 st2 st3">E</text>
<text transform="matrix(1 0 0 1 921.8656 157.5401)" class="st1 st2 st3">D</text>
<line class="st0" x1="224.6" y1="0.6" x2="1074.7" y2="-0.4"/>
<line class="st0" x1="224.7" y1="271.8" x2="1074.8" y2="271"/>
<line class="st0" x1="141.1" y1="70.9" x2="226.1" y2="71.2"/>
<line class="st0" x1="141.1" y1="201.1" x2="226.2" y2="201.1"/>
<line class="st0" x1="226.2" y1="70.9" x2="311.1" y2="71.1"/>
<line class="st0" x1="226.2" y1="201.1" x2="311.2" y2="201"/>
<line class="st0" x1="311.1" y1="71.1" x2="396.2" y2="71.2"/>
<line class="st0" x1="311.2" y1="201" x2="396.3" y2="201.1"/>
<line class="st0" x1="396.2" y1="71.2" x2="481.2" y2="71.4"/>
<line class="st0" x1="396.3" y1="201.1" x2="481.3" y2="201.3"/>
<line class="st0" x1="481.2" y1="71.4" x2="566.2" y2="71.4"/>
<line class="st0" x1="481.3" y1="201.3" x2="566.4" y2="201.5"/>
<line class="st0" x1="566.2" y1="71.4" x2="651.3" y2="71.3"/>
<line class="st0" x1="566.4" y1="201.5" x2="651.5" y2="201.4"/>
<line class="st0" x1="651.3" y1="71.3" x2="736.3" y2="71.4"/>
<line class="st0" x1="651.5" y1="201.4" x2="736.5" y2="201.5"/>
<line class="st0" x1="736.3" y1="71.4" x2="821.3" y2="71.1"/>
<line class="st0" x1="736.5" y1="201.5" x2="821.6" y2="201.2"/>
<line class="st0" x1="821.3" y1="71.1" x2="906.5" y2="70.2"/>
<line class="st0" x1="821.6" y1="201.2" x2="906.7" y2="200.2"/>
<line class="st0" x1="906.5" y1="70.2" x2="991.5" y2="70.3"/>
<line class="st0" x1="906.7" y1="200.2" x2="991.7" y2="200.4"/>
<text transform="matrix(0.835 0 -0.8169 0.5767 183.656 51.3344)" class="st4 st2 st3">S</text>
<text transform="matrix(0.835 0 -0.8169 0.5767 267.8352 51.3349)" class="st4 st2 st3">A</text>
<text transform="matrix(0.835 0 -0.8169 0.5767 358.8745 51.3348)" class="st4 st2 st3">F</text>
<text transform="matrix(0.835 0 -0.8169 0.5767 438.7743 51.335)" class="st4 st2 st3">E</text>
<text transform="matrix(0.835 0 -0.8169 0.5767 522.9534 51.3352)" class="st4 st2 st3">S</text>
<text transform="matrix(0.835 0 -0.8169 0.5767 620.9933 51.3348)" class="st4 st2 st3">I</text>
<text transform="matrix(0.835 0 -0.8169 0.5767 688.0321 51.3353)" class="st4 st2 st3">M</text>
<text transform="matrix(0.835 0 -0.8169 0.5767 778.0718 51.3361)" class="st4 st2 st3">P</text>
<text transform="matrix(0.835 0 -0.8169 0.5767 868.111 51.3364)" class="st4 st2 st3">L</text>
<text transform="matrix(0.835 0 -0.8169 0.5767 948.2243 51.3357)" class="st4 st2 st3">E</text>
<text transform="matrix(0.5448 0 0.8386 0.5448 237.2377 251.7623)" class="st4 st2 st3">C</text>
<text transform="matrix(0.5448 0 0.8386 0.5448 317.8299 251.764)" class="st4 st2 st3">O</text>
<text transform="matrix(0.5448 0 0.8386 0.5448 401.8302 251.7641)" class="st4 st2 st3">M</text>
<text transform="matrix(0.5448 0 0.8386 0.5448 493.7685 251.7635)" class="st4 st2 st3">P</text>
<text transform="matrix(0.5448 0 0.8386 0.5448 577.7685 251.7637)" class="st4 st2 st3">L</text>
<text transform="matrix(0.5448 0 0.8386 0.5448 665.7685 251.7631)" class="st4 st2 st3">I</text>
<text transform="matrix(0.5448 0 0.8386 0.5448 748.7684 251.7637)" class="st4 st2 st3">A</text>
<text transform="matrix(0.5448 0 0.8386 0.5448 826.7684 251.7636)" class="st4 st2 st3">N</text>
<text transform="matrix(0.5448 0 0.8386 0.5448 916.7684 251.7637)" class="st4 st2 st3">C</text>
<text transform="matrix(0.5448 0 0.8386 0.5448 1002.7684 251.7628)" class="st4 st2 st3">E</text>
</svg>
