<?xml version="1.0" encoding="utf-8"?>
<!-- Generator: Adobe Illustrator 22.1.0, SVG Export Plug-In . SVG Version: 6.00 Build 0)  -->
<svg version="1.1" id="Слой_1" xmlns="http://www.w3.org/2000/svg" xmlns:xlink="http://www.w3.org/1999/xlink" x="0px" y="0px"
	 viewBox="0 0 1600 1024" style="enable-background:new 0 0 1600 1024;" xml:space="preserve">
<style type="text/css">
	.st0{fill:none;stroke:#4285F4;stroke-miterlimit:10;}
	.st1{fill:#4285F4;}
	.st2{font-family:'MyriadPro-Regular';}
	.st3{font-size:80px;}
	.st4{fill:#808080;}
</style>
<line class="st0" x1="233.3" y1="418.6" x2="233.4" y2="549"/>
<line class="st0" x1="318.4" y1="418.6" x2="318.5" y2="549"/>
<line class="st0" x1="403.4" y1="418.4" x2="403.5" y2="548.8"/>
<line class="st0" x1="488.4" y1="418.6" x2="488.5" y2="549"/>
<line class="st0" x1="573.5" y1="418.8" x2="573.6" y2="549.2"/>
<line class="st0" x1="658.5" y1="418.8" x2="658.6" y2="549.2"/>
<line class="st0" x1="743.6" y1="418.7" x2="743.7" y2="549.1"/>
<line class="st0" x1="828.6" y1="418.8" x2="828.7" y2="549.2"/>
<line class="st0" x1="913.6" y1="418.5" x2="913.7" y2="548.9"/>
<line class="st0" x1="998.7" y1="417.5" x2="998.8" y2="547.9"/>
<line class="st0" x1="1083.8" y1="417.7" x2="1083.9" y2="548.1"/>
<line class="st0" x1="316.7" y1="348.2" x2="233.2" y2="418.9"/>
<line class="st0" x1="401.8" y1="348.2" x2="318.2" y2="418.9"/>
<line class="st0" x1="486.8" y1="348.1" x2="403.3" y2="418.8"/>
<line class="st0" x1="571.8" y1="348.2" x2="488.3" y2="418.9"/>
<line class="st0" x1="656.9" y1="348.4" x2="573.4" y2="419"/>
<line class="st0" x1="741.9" y1="348.4" x2="658.4" y2="419"/>
<line class="st0" x1="827" y1="348.3" x2="743.4" y2="418.9"/>
<line class="st0" x1="912" y1="348.4" x2="828.5" y2="419"/>
<line class="st0" x1="997" y1="348.2" x2="913.5" y2="418.8"/>
<line class="st0" x1="1082.2" y1="347.2" x2="998.6" y2="417.9"/>
<line class="st0" x1="1167.2" y1="347.4" x2="1083.7" y2="418"/>
<line class="st0" x1="233.3" y1="548.8" x2="316.8" y2="619.4"/>
<line class="st0" x1="318.3" y1="548.8" x2="401.9" y2="619.4"/>
<line class="st0" x1="403.4" y1="548.7" x2="486.9" y2="619.3"/>
<line class="st0" x1="488.4" y1="548.8" x2="571.9" y2="619.4"/>
<line class="st0" x1="573.5" y1="549" x2="657" y2="619.6"/>
<line class="st0" x1="658.5" y1="549" x2="742" y2="619.6"/>
<line class="st0" x1="743.5" y1="548.9" x2="827.1" y2="619.5"/>
<line class="st0" x1="828.6" y1="549" x2="912.1" y2="619.6"/>
<line class="st0" x1="913.6" y1="548.7" x2="997.1" y2="619.4"/>
<line class="st0" x1="998.7" y1="547.8" x2="1082.3" y2="618.5"/>
<line class="st0" x1="1083.8" y1="547.9" x2="1167.3" y2="618.6"/>
<line class="st0" x1="1166.8" y1="347.2" x2="1250.3" y2="417.9"/>
<path class="st0" d="M1250.1,524.8c0,7.9,0.1,15.8,0.1,23.6"/>
<path class="st0" d="M1250.2,417.5c-0.1,10.5-0.1,19.5,0,29.3"/>
<line class="st0" x1="1250.5" y1="548.1" x2="1167" y2="618.7"/>
<line class="st0" x1="1147" y1="447" x2="1385" y2="447"/>
<line class="st0" x1="1147" y1="525" x2="1385" y2="525"/>
<path class="st0" d="M1147,447c-28.1,7.9-24.8,66,0,78"/>
<path class="st0" d="M1383.7,447.2c-28.3,4.5-27.7,66.8,0,78"/>
<path class="st0" d="M1385,446.8c41.7,0.3,45,74.5,0,78"/>
<line class="st0" x1="233.3" y1="448" x2="112" y2="448"/>
<line class="st0" x1="233.3" y1="525.6" x2="112" y2="525.6"/>
<path class="st0" d="M112,447.8c-28.1,7.9-24.8,66,0,78"/>
<text transform="matrix(1 0 0 1 259 506.0002)" class="st1 st2 st3">E</text>
<text transform="matrix(1 0 0 1 337 505.9999)" class="st1 st2 st3">N</text>
<text transform="matrix(1 0 0 1 422 506.0004)" class="st1 st2 st3">D</text>
<text transform="matrix(1 0 0 1 511 505.2061)" class="st1 st2 st3">C</text>
<text transform="matrix(1 0 0 1 596 506)" class="st1 st2 st3">R</text>
<text transform="matrix(1 0 0 1 683 506.0005)" class="st1 st2 st3">Y</text>
<text transform="matrix(1 0 0 1 762 505.2061)" class="st1 st2 st3">P</text>
<text transform="matrix(1 0 0 1 849 506)" class="st1 st2 st3">T</text>
<text transform="matrix(1 0 0 1 936 506.0005)" class="st1 st2 st3">E</text>
<text transform="matrix(1 0 0 1 1014.0342 505.2063)" class="st1 st2 st3">D</text>
<line class="st0" x1="316.7" y1="348.2" x2="1166.8" y2="347.2"/>
<line class="st0" x1="316.8" y1="619.4" x2="1167" y2="618.7"/>
<line class="st0" x1="233.3" y1="418.6" x2="318.2" y2="418.9"/>
<line class="st0" x1="233.3" y1="548.8" x2="318.3" y2="548.8"/>
<line class="st0" x1="318.4" y1="418.6" x2="403.3" y2="418.8"/>
<line class="st0" x1="318.3" y1="548.8" x2="403.4" y2="548.7"/>
<line class="st0" x1="403.3" y1="418.8" x2="488.3" y2="418.9"/>
<line class="st0" x1="403.4" y1="548.7" x2="488.4" y2="548.8"/>
<line class="st0" x1="488.3" y1="418.9" x2="573.4" y2="419"/>
<line class="st0" x1="488.4" y1="548.8" x2="573.5" y2="549"/>
<line class="st0" x1="573.4" y1="419" x2="658.4" y2="419"/>
<line class="st0" x1="573.5" y1="549" x2="658.6" y2="549.2"/>
<line class="st0" x1="658.4" y1="419" x2="743.4" y2="418.9"/>
<line class="st0" x1="658.6" y1="549.2" x2="743.7" y2="549.1"/>
<line class="st0" x1="743.4" y1="418.9" x2="828.5" y2="419"/>
<line class="st0" x1="743.7" y1="549.1" x2="828.7" y2="549.2"/>
<line class="st0" x1="828.5" y1="419" x2="913.5" y2="418.8"/>
<line class="st0" x1="828.7" y1="549.2" x2="913.7" y2="548.9"/>
<line class="st0" x1="913.5" y1="418.8" x2="998.6" y2="417.9"/>
<line class="st0" x1="913.7" y1="548.9" x2="998.8" y2="547.9"/>
<line class="st0" x1="998.6" y1="417.9" x2="1083.7" y2="418"/>
<line class="st0" x1="998.8" y1="547.9" x2="1083.9" y2="548.1"/>
<text transform="matrix(0.835 0 -0.8169 0.5767 275.8246 399.0006)" class="st4 st2 st3">S</text>
<text transform="matrix(0.835 0 -0.8169 0.5767 360.0038 399.0011)" class="st4 st2 st3">A</text>
<text transform="matrix(0.835 0 -0.8169 0.5767 451.0431 399.0009)" class="st4 st2 st3">F</text>
<text transform="matrix(0.835 0 -0.8169 0.5767 530.9429 399.0012)" class="st4 st2 st3">E</text>
<text transform="matrix(0.835 0 -0.8169 0.5767 615.1219 399.0014)" class="st4 st2 st3">S</text>
<text transform="matrix(0.835 0 -0.8169 0.5767 713.1619 399.001)" class="st4 st2 st3">I</text>
<text transform="matrix(0.835 0 -0.8169 0.5767 780.2007 399.0015)" class="st4 st2 st3">M</text>
<text transform="matrix(0.835 0 -0.8169 0.5767 870.2404 399.0023)" class="st4 st2 st3">P</text>
<text transform="matrix(0.835 0 -0.8169 0.5767 960.2795 399.0026)" class="st4 st2 st3">L</text>
<text transform="matrix(0.835 0 -0.8169 0.5767 1040.3928 399.0019)" class="st4 st2 st3">E</text>
<text transform="matrix(0.5448 0 0.8386 0.5448 329.4063 599.4285)" class="st4 st2 st3">C</text>
<text transform="matrix(0.5448 0 0.8386 0.5448 409.9985 599.4302)" class="st4 st2 st3">O</text>
<text transform="matrix(0.5448 0 0.8386 0.5448 493.9988 599.4304)" class="st4 st2 st3">M</text>
<text transform="matrix(0.5448 0 0.8386 0.5448 585.9371 599.4297)" class="st4 st2 st3">P</text>
<text transform="matrix(0.5448 0 0.8386 0.5448 669.9371 599.4299)" class="st4 st2 st3">L</text>
<text transform="matrix(0.5448 0 0.8386 0.5448 757.9371 599.4293)" class="st4 st2 st3">I</text>
<text transform="matrix(0.5448 0 0.8386 0.5448 840.937 599.4299)" class="st4 st2 st3">A</text>
<text transform="matrix(0.5448 0 0.8386 0.5448 918.937 599.4298)" class="st4 st2 st3">N</text>
<text transform="matrix(0.5448 0 0.8386 0.5448 1008.937 599.4299)" class="st4 st2 st3">C</text>
<text transform="matrix(0.5448 0 0.8386 0.5448 1094.937 599.429)" class="st4 st2 st3">E</text>
</svg>
