<?xml version="1.0" encoding="utf-8"?>
<!-- Generator: Adobe Illustrator 20.1.0, SVG Export Plug-In . SVG Version: 6.00 Build 0)  -->
<svg version="1.1" id="Capa_1" xmlns="http://www.w3.org/2000/svg" xmlns:xlink="http://www.w3.org/1999/xlink" x="0px" y="0px"
	 viewBox="0 0 512 512" style="enable-background:new 0 0 512 512;" xml:space="preserve">
<style type="text/css">
	.st0{fill:#3B9DFF;}
</style>
<g>
	<path class="st0" d="M512,34.1H264.5V8.5c0-4.7-3.8-8.5-8.5-8.5c-4.7,0-8.5,3.8-8.5,8.5v25.6H0v358.4h235.4L130.5,497.4
		c-3.3,3.3-3.3,8.7,0,12.1c1.7,1.7,3.8,2.5,6,2.5c2.2,0,4.4-0.8,6-2.5l104.9-104.9v81.8c0,4.7,3.8,8.5,8.5,8.5
		c4.7,0,8.5-3.8,8.5-8.5v-81.8l104.9,104.9c1.7,1.7,3.8,2.5,6,2.5s4.4-0.8,6-2.5c3.3-3.3,3.3-8.7,0-12.1L276.6,392.5H512V34.1z
		 M494.9,375.5H17.1V51.2h477.9V375.5z"/>
	<path class="st0" d="M307.2,358.4c4.7,0,8.5-3.8,8.5-8.5v-25.6c0-4.7-3.8-8.5-8.5-8.5c-4.7,0-8.5,3.8-8.5,8.5v25.6
		C298.7,354.6,302.5,358.4,307.2,358.4z"/>
	<path class="st0" d="M341.3,281.6c-4.7,0-8.5,3.8-8.5,8.5v59.7c0,4.7,3.8,8.5,8.5,8.5c4.7,0,8.5-3.8,8.5-8.5v-59.7
		C349.9,285.4,346.1,281.6,341.3,281.6z"/>
	<path class="st0" d="M375.5,298.7c-4.7,0-8.5,3.8-8.5,8.5v42.7c0,4.7,3.8,8.5,8.5,8.5c4.7,0,8.5-3.8,8.5-8.5v-42.7
		C384,302.5,380.2,298.7,375.5,298.7z"/>
	<path class="st0" d="M409.6,238.9c-4.7,0-8.5,3.8-8.5,8.5v102.4c0,4.7,3.8,8.5,8.5,8.5c4.7,0,8.5-3.8,8.5-8.5V247.5
		C418.1,242.7,414.3,238.9,409.6,238.9z"/>
	<path class="st0" d="M443.7,273.1c-4.7,0-8.5,3.8-8.5,8.5v68.3c0,4.7,3.8,8.5,8.5,8.5c4.7,0,8.5-3.8,8.5-8.5v-68.3
		C452.3,276.9,448.5,273.1,443.7,273.1z"/>
	<path class="st0" d="M68.3,324.3h85.3c4.7,0,8.5-3.8,8.5-8.5c0-4.7-3.8-8.5-8.5-8.5H68.3c-4.7,0-8.5,3.8-8.5,8.5
		C59.7,320.5,63.5,324.3,68.3,324.3z"/>
	<path class="st0" d="M196.3,341.3h-128c-4.7,0-8.5,3.8-8.5,8.5c0,4.7,3.8,8.5,8.5,8.5h128c4.7,0,8.5-3.8,8.5-8.5
		C204.8,345.1,201,341.3,196.3,341.3z"/>
	<path class="st0" d="M255.6,158.8c-0.2-2-0.4-4-0.7-6c-0.2-1.2-0.3-2.4-0.6-3.6c-0.4-2.2-0.9-4.4-1.5-6.6c-0.2-1-0.5-2-0.8-2.9
		c-0.6-2.3-1.4-4.5-2.2-6.7c-0.3-0.9-0.7-1.9-1-2.8c-0.8-2.1-1.7-4.1-2.7-6c-0.5-1.1-1-2.1-1.5-3.2c-0.9-1.7-1.8-3.3-2.8-4.9
		c-0.8-1.3-1.5-2.6-2.4-3.9c-0.8-1.1-1.6-2.2-2.4-3.3c-1.2-1.6-2.3-3.3-3.6-4.8c0,0,0,0,0,0c-2-2.4-4.1-4.8-6.3-7
		c-2.1-2.1-4.4-4.1-6.7-6c-0.1-0.1-0.2-0.2-0.3-0.3c-1.5-1.2-3-2.3-4.6-3.4c-1.2-0.9-2.3-1.8-3.5-2.6c-1.2-0.8-2.4-1.5-3.6-2.2
		c-1.7-1-3.4-2.1-5.2-3c-0.9-0.5-1.9-0.9-2.8-1.4c-2.1-1-4.2-2-6.4-2.9c-0.8-0.3-1.7-0.6-2.5-0.9c-2.3-0.8-4.6-1.6-6.9-2.3
		c-0.9-0.3-1.9-0.5-2.8-0.7c-2.2-0.6-4.5-1.1-6.7-1.5c-1.2-0.2-2.4-0.4-3.6-0.6c-2-0.3-4-0.5-6-0.7c-1.5-0.1-3.1-0.2-4.6-0.2
		c-1,0-2-0.2-3-0.2c-0.8,0-1.5,0.1-2.3,0.1c-0.8,0-1.5-0.1-2.3,0l-3.4,0.2l-0.1,0.1c-50.4,4.1-90.1,46.3-90.1,97.7
		c0,54.1,44,98.1,98.1,98.1c24.6,0,47-9.1,64.2-24.1c0.2-0.2,0.5-0.3,0.8-0.5c0.1-0.1,0.2-0.3,0.3-0.5c18.1-16.2,30.2-39,32.4-64.6
		l0.2-0.1l0.2-3.8c0-0.8,0-1.5,0-2.2c0-0.8,0.1-1.5,0.1-2.3c0-1-0.1-2.1-0.2-3.1C255.8,161.8,255.7,160.3,255.6,158.8z M162.1,85.5
		c0.8,0,1.7,0.1,2.5,0.1c0.9,0.1,1.8,0.2,2.7,0.3c1.9,0.2,3.8,0.5,5.7,0.9c0.6,0.1,1.1,0.2,1.7,0.3c2.3,0.5,4.6,1.1,6.9,1.8
		c0.1,0,0.3,0.1,0.4,0.1c25.3,7.9,45.3,27.9,53.2,53.2c0,0.1,0.1,0.3,0.1,0.4c0.7,2.2,1.3,4.5,1.8,6.9c0.1,0.6,0.2,1.1,0.3,1.7
		c0.4,1.9,0.6,3.8,0.9,5.7c0.1,0.9,0.2,1.8,0.3,2.7c0.1,0.8,0.1,1.7,0.1,2.5h-76.6V85.5z M76.8,166.4c0-40.3,29.6-73.8,68.3-80v83.9
		l0,0.3c0,0,0,0.1,0,0.1l0.3,8.5h4.7l53.8,53.8c-13.1,9.1-28.9,14.4-46,14.4C113.2,247.5,76.8,211.1,76.8,166.4z M216.8,221.8
		l-42.6-42.6h63.6C235.2,195.6,227.7,210.3,216.8,221.8z"/>
	<path class="st0" d="M332.8,128h68.3c4.7,0,8.5-3.8,8.5-8.5c0-4.7-3.8-8.5-8.5-8.5h-68.3c-4.7,0-8.5,3.8-8.5,8.5
		C324.3,124.2,328.1,128,332.8,128z"/>
	<path class="st0" d="M437.8,113.4c-1.6,1.5-2.6,3.7-2.6,6.1c0,2.3,0.9,4.5,2.5,6c1.6,1.6,3.7,2.6,6.1,2.6c2.2,0,4.4-0.9,6.1-2.5
		c1.5-1.6,2.5-3.8,2.5-6.1c0-2.2-0.9-4.4-2.5-6.1C446.5,110.3,440.7,110.3,437.8,113.4z"/>
	<path class="st0" d="M418.1,85.3h25.6c4.7,0,8.5-3.8,8.5-8.5c0-4.7-3.8-8.5-8.5-8.5h-25.6c-4.7,0-8.5,3.8-8.5,8.5
		C409.6,81.5,413.4,85.3,418.1,85.3z"/>
	<path class="st0" d="M332.8,85.3h17.1c4.7,0,8.5-3.8,8.5-8.5c0-4.7-3.8-8.5-8.5-8.5h-17.1c-4.7,0-8.5,3.8-8.5,8.5
		C324.3,81.5,328.1,85.3,332.8,85.3z"/>
	<path class="st0" d="M384,85.3c2.3,0,4.4-0.9,6.1-2.5c1.5-1.6,2.5-3.8,2.5-6.1c0-2.3-0.9-4.4-2.5-6.1c-3.2-3.2-9.1-3.2-12.1,0
		c-1.5,1.6-2.5,3.7-2.5,6.1c0,2.3,0.9,4.4,2.5,6.1C379.6,84.4,381.7,85.3,384,85.3z"/>
</g>
</svg>
