<?xml version="1.0" encoding="utf-8"?>
<!-- Generator: Adobe Illustrator 20.1.0, SVG Export Plug-In . SVG Version: 6.00 Build 0)  -->
<svg version="1.1" id="Capa_1" xmlns="http://www.w3.org/2000/svg" xmlns:xlink="http://www.w3.org/1999/xlink" x="0px" y="0px"
	 viewBox="0 0 512 512" style="enable-background:new 0 0 512 512;" xml:space="preserve">
<style type="text/css">
	.st0{fill:#3B9DFF;}
</style>
<path class="st0" d="M509.1,457.9l-20-20c-3.9-3.9-10.2-3.9-14.1,0c-3.9,3.9-3.9,10.2,0,14.1l2.9,2.9h-29.6V336.5
	c0-5.5-4.5-10-10-10s-10,4.5-10,10V455h-44V235h44v30.5c0,5.5,4.5,10,10,10s10-4.5,10-10V225c0-5.5-4.5-10-10-10h-64
	c-5.5,0-10,4.5-10,10v230h-20.1V289c0-5.5-4.5-10-10-10h-64c-5.5,0-10,4.5-10,10v166h-20.1V345c0-5.5-4.5-10-10-10h-64
	c-5.5,0-10,4.5-10,10v110H136v-70c0-5.5-4.5-10-10-10H62c-5.5,0-10,4.5-10,10v70H40V51.1l2.9,2.9c2,2,4.5,2.9,7.1,2.9s5.1-1,7.1-2.9
	c3.9-3.9,3.9-10.2,0-14.1l-20-20c-3.9-3.9-10.2-3.9-14.1,0l-20,20C-1,43.8-1,50.2,2.9,54.1c3.9,3.9,10.2,3.9,14.1,0l2.9-2.9V465
	c0,5.5,4.5,10,10,10h447.9l-2.9,2.9c-3.9,3.9-3.9,10.2,0,14.1c2,2,4.5,2.9,7.1,2.9s5.1-1,7.1-2.9l20-20
	C513,468.2,513,461.8,509.1,457.9z M72,455v-60h44v60H72z M176.1,455V355h44v100H176.1z M280.2,455V299h44v156H280.2z"/>
<path class="st0" d="M438.3,290.5c-2.6,0-5.2,1.1-7.1,2.9c-1.9,1.9-2.9,4.4-2.9,7.1s1.1,5.2,2.9,7.1c1.9,1.9,4.4,2.9,7.1,2.9
	s5.2-1.1,7.1-2.9c1.9-1.9,2.9-4.4,2.9-7.1s-1.1-5.2-2.9-7.1C443.5,291.6,440.9,290.5,438.3,290.5z"/>
<path class="st0" d="M93.2,279l-0.3,0c-5.5,0.6-9.4,5.6-8.8,11.1c0.6,5.1,4.9,8.9,9.9,8.9c0.4,0,0.8,0,1.1-0.1l0.3,0
	c5.5-0.6,9.4-5.6,8.8-11.1C103.6,282.3,98.7,278.4,93.2,279z"/>
<path class="st0" d="M119.4,285.3c1,4.7,5.2,7.8,9.8,7.8c0.7,0,1.4-0.1,2.2-0.2c40.1-8.8,79.9-24.8,118.5-47.6
	c30.7-18.1,60.6-40.5,88.9-66.6c36.4-33.5,60.5-64.1,70.6-77.7l14.9,10c1.7,1.1,3.6,1.7,5.6,1.7c1.5,0,3-0.3,4.4-1
	c3.2-1.6,5.3-4.7,5.6-8.3l4-57.6c0.2-3.6-1.4-7-4.4-9c-3-2-6.8-2.3-10-0.7l-51.9,25.3c-3.2,1.6-5.3,4.7-5.6,8.3
	c-0.2,3.6,1.4,7,4.4,9l16.4,11c-9.9,13.3-33.3,42.8-67.9,74.6c-42.7,39.2-111.7,90-197.8,108.9C121.6,274.5,118.2,279.9,119.4,285.3
	z M422.6,61.8l-1.6,23l-19.1-12.9L422.6,61.8z"/>
<path class="st0" d="M106,199.2c-12.1,0-22-8.5-22-19c0-5.5-4.5-10-10-10s-10,4.5-10,10c0,18.3,13.7,33.7,32,37.9v2.9
	c0,5.5,4.5,10,10,10s10-4.5,10-10v-2.9c18.3-4.2,32-19.6,32-37.9c0-21.5-18.8-39-42-39c-12.1,0-22-8.5-22-19s9.9-19,22-19
	s22,8.5,22,19c0,5.5,4.5,10,10,10s10-4.5,10-10c0-18.3-13.7-33.7-32-37.9V81c0-5.5-4.5-10-10-10s-10,4.5-10,10v3.2
	c-18.3,4.2-32,19.6-32,37.9c0,21.5,18.8,39,42,39c12.1,0,22,8.5,22,19S118.1,199.2,106,199.2z"/>
</svg>
